<?xml version="1.0" encoding="utf-8"?>
<!-- Generator: Adobe Illustrator 16.0.0, SVG Export Plug-In . SVG Version: 6.00 Build 0)  -->
<!DOCTYPE svg PUBLIC "-//W3C//DTD SVG 1.0//EN" "http://www.w3.org/TR/2001/REC-SVG-20010904/DTD/svg10.dtd">
<svg version="1.0" id="Layer_1" xmlns="http://www.w3.org/2000/svg" xmlns:xlink="http://www.w3.org/1999/xlink" x="0px" y="0px"
	 width="100px" height="100px" viewBox="0 0 100 100" enable-background="new 0 0 100 100" xml:space="preserve">
<path d="M80.007,23.334H80c-4.974,4.974-10.882,8.421-17.155,10.41L60,16.667l-10,6.667l-10-6.667l-2.845,17.077
	C30.882,31.755,24.974,28.308,20,23.334c-6.179,5.97-10,14.219-10,23.33v9.566c7.487-3.099,16.067,0.449,19.167,7.937
	c10.586,0,19.166,8.577,19.166,19.166h3.334c0-10.589,8.577-19.166,19.166-19.166C73.936,56.68,82.513,53.132,90,56.23v-9.563
	C90.003,38.223,86.67,29.775,80.007,23.334z"/>
</svg>
